# xmcd
#
# Track frame offsets:
# 150
# 2516
# 14149
# 38507
# 51089
# 66271
# 81565
# 92123
# 107665
# 128552
# 147280
# 162434
# 167348
# 169827
# 174439
# 176857
# 181511
# 183797
# 197718
# 216466
# 237016
# 253546
# 263701
# 284257
# 304820
# 327569
# 351681
#
# Disc length: 4721 seconds
#
#
# Revision: 0
# Processed by: cddbd v1.5.2PL0 Copyright (c) Steve Scherf et al.
# Submitted via: FreeRIP 2.945 
#
DISCID=84126f1b
DTITLE=ZZ Top - ZZ Top's First Album - Toys in the Attic
DYEAR=1973
DGENRE=minidisc
TTITLE0=ad
TTITLE1=somebody else been shakin your tree
TTITLE2=brown sugar
TTITLE3=skwank
TTITLE4=goin down to mexico
TTITLE5=old man
TTITLE6=neighbor neighbor
TTITLE7=certified blues
TTITLE8=bedroom thang
TTITLE9=just got back from baby's
TTITLE10=backdoor love affair
TTITLE11=circus ad
TTITLE12=circus ad
TTITLE13=circus ad
TTITLE14=circus ad
TTITLE15=circus ad
TTITLE16=circus ad
TTITLE17=toys in the attic
TTITLE18=uncle salty
TTITLE19=adams apple
TTITLE20=walk this way
TTITLE21=big ten inch record
TTITLE22=sweet emotion
TTITLE23=no more no more
TTITLE24=round and round
TTITLE25=you see me crying
TTITLE26=ad
EXTD=
EXTT0=
EXTT1=
EXTT2=
EXTT3=
EXTT4=
EXTT5=
EXTT6=
EXTT7=
EXTT8=
EXTT9=
EXTT10=
EXTT11=
EXTT12=
EXTT13=
EXTT14=
EXTT15=
EXTT16=
EXTT17=
EXTT18=
EXTT19=
EXTT20=
EXTT21=
EXTT22=
EXTT23=
EXTT24=
EXTT25=
EXTT26=
PLAYORDER=
